<svg width="231" height="103" viewBox="0 0 231 103" fill="none" xmlns="http://www.w3.org/2000/svg">
<path d="M49.0052 65.26V70.768H40.9592L41.3912 70.336V91H34.7492V70.336L35.1812 70.768H27.1352V65.26H49.0052ZM48.6593 78.607C48.6593 77.371 48.8843 76.261 49.3343 75.277C49.7903 74.293 50.4383 73.456 51.2783 72.766C52.1243 72.07 53.1503 71.539 54.3563 71.173C55.5683 70.801 56.9303 70.615 58.4423 70.615C59.9843 70.615 61.3583 70.81 62.5643 71.2C63.7763 71.584 64.7993 72.145 65.6333 72.883C66.4673 73.615 67.1033 74.515 67.5413 75.583C67.9793 76.651 68.1983 77.866 68.1983 79.228V91H61.9343V85.942L61.9613 85.933C61.8233 86.515 61.6343 87.055 61.3943 87.553C61.1543 88.051 60.8663 88.51 60.5303 88.93C60.1943 89.344 59.8133 89.713 59.3873 90.037C58.9613 90.361 58.4963 90.634 57.9923 90.856C57.4943 91.078 56.9603 91.246 56.3903 91.36C55.8203 91.48 55.2203 91.54 54.5903 91.54C53.6123 91.54 52.7213 91.399 51.9173 91.117C51.1193 90.841 50.4353 90.451 49.8653 89.947C49.2953 89.437 48.8543 88.828 48.5423 88.12C48.2303 87.406 48.0743 86.611 48.0743 85.735C48.0743 84.787 48.2633 83.938 48.6413 83.188C49.0253 82.438 49.5803 81.805 50.3063 81.289C51.0383 80.767 51.9293 80.371 52.9793 80.101C54.0293 79.825 55.2263 79.687 56.5703 79.687H62.0693V83.071H57.4163C56.9183 83.071 56.4773 83.113 56.0933 83.197C55.7153 83.281 55.3973 83.407 55.1393 83.575C54.8873 83.743 54.6953 83.953 54.5633 84.205C54.4313 84.451 54.3653 84.733 54.3653 85.051C54.3653 85.375 54.4283 85.666 54.5543 85.924C54.6863 86.182 54.8783 86.398 55.1303 86.572C55.3823 86.746 55.6883 86.881 56.0483 86.977C56.4143 87.067 56.8313 87.112 57.2993 87.112C57.7373 87.112 58.1543 87.073 58.5503 86.995C58.9523 86.911 59.3243 86.797 59.6663 86.653C60.0083 86.503 60.3203 86.326 60.6023 86.122C60.8843 85.912 61.1213 85.681 61.3133 85.429C61.5113 85.177 61.6643 84.904 61.7723 84.61C61.8803 84.31 61.9343 84.001 61.9343 83.683V79.228C61.9343 78.616 61.8533 78.07 61.6913 77.59C61.5353 77.104 61.3013 76.693 60.9893 76.357C60.6833 76.021 60.3053 75.766 59.8553 75.592C59.4053 75.418 58.8863 75.331 58.2983 75.331C57.7103 75.331 57.2003 75.406 56.7683 75.556C56.3423 75.706 55.9913 75.922 55.7153 76.204C55.4393 76.486 55.2323 76.831 55.0943 77.239C54.9623 77.641 54.8963 78.097 54.8963 78.607H48.6593ZM77.1139 71.155V77.221L77.0959 77.257C77.2879 76.177 77.5699 75.226 77.9419 74.404C78.3139 73.576 78.7669 72.883 79.3009 72.325C79.8409 71.761 80.4559 71.335 81.1459 71.047C81.8419 70.759 82.6129 70.615 83.4589 70.615C84.2269 70.615 84.9529 70.732 85.6369 70.966C86.3269 71.194 86.9599 71.524 87.5359 71.956C88.1179 72.382 88.6399 72.904 89.1019 73.522C89.5639 74.14 89.9539 74.836 90.2719 75.61C90.5959 76.384 90.8449 77.23 91.0189 78.148C91.1929 79.066 91.2799 80.041 91.2799 81.073C91.2799 82.105 91.1929 83.08 91.0189 83.998C90.8449 84.916 90.5959 85.765 90.2719 86.545C89.9539 87.319 89.5639 88.015 89.1019 88.633C88.6399 89.251 88.1179 89.776 87.5359 90.208C86.9599 90.634 86.3269 90.961 85.6369 91.189C84.9529 91.423 84.2269 91.54 83.4589 91.54C82.6189 91.54 81.8509 91.396 81.1549 91.108C80.4589 90.82 79.8409 90.397 79.3009 89.839C78.7669 89.275 78.3139 88.579 77.9419 87.751C77.5699 86.923 77.2879 85.969 77.0959 84.889L77.1139 84.925V97.813H70.8499V71.155H77.1139ZM77.1139 81.073C77.1139 81.625 77.1529 82.135 77.2309 82.603C77.3089 83.071 77.4229 83.494 77.5729 83.872C77.7229 84.25 77.9089 84.583 78.1309 84.871C78.3589 85.159 78.6169 85.399 78.9049 85.591C79.1989 85.783 79.5259 85.93 79.8859 86.032C80.2459 86.134 80.6389 86.185 81.0649 86.185C81.7069 86.185 82.2709 86.077 82.7569 85.861C83.2429 85.645 83.6479 85.324 83.9719 84.898C84.3019 84.472 84.5479 83.941 84.7099 83.305C84.8779 82.663 84.9619 81.919 84.9619 81.073C84.9619 80.227 84.8779 79.486 84.7099 78.85C84.5479 78.214 84.3049 77.683 83.9809 77.257C83.6569 76.831 83.2489 76.51 82.7569 76.294C82.2709 76.078 81.7069 75.97 81.0649 75.97C80.6389 75.97 80.2459 76.021 79.8859 76.123C79.5259 76.225 79.1989 76.372 78.9049 76.564C78.6169 76.756 78.3589 76.996 78.1309 77.284C77.9089 77.572 77.7229 77.905 77.5729 78.283C77.4229 78.661 77.3089 79.084 77.2309 79.552C77.1529 80.014 77.1139 80.521 77.1139 81.073ZM93.7029 65.26H106.762C108.16 65.26 109.414 65.404 110.524 65.692C111.64 65.98 112.585 66.397 113.359 66.943C114.139 67.489 114.736 68.164 115.15 68.968C115.57 69.766 115.78 70.678 115.78 71.704C115.78 72.61 115.621 73.435 115.303 74.179C114.991 74.917 114.556 75.55 113.998 76.078C113.44 76.6 112.783 77.005 112.027 77.293C111.271 77.575 110.449 77.716 109.561 77.716V77.626C110.599 77.626 111.562 77.782 112.45 78.094C113.344 78.406 114.118 78.847 114.772 79.417C115.426 79.981 115.939 80.659 116.311 81.451C116.683 82.237 116.869 83.107 116.869 84.061C116.869 85.147 116.626 86.119 116.14 86.977C115.66 87.835 114.982 88.561 114.106 89.155C113.236 89.749 112.189 90.205 110.965 90.523C109.741 90.841 108.391 91 106.915 91H93.7029V65.26ZM100.345 86.032L100.237 85.924H106.582C107.182 85.924 107.707 85.87 108.157 85.762C108.613 85.648 108.991 85.477 109.291 85.249C109.597 85.021 109.828 84.73 109.984 84.376C110.14 84.022 110.218 83.605 110.218 83.125C110.218 82.639 110.14 82.222 109.984 81.874C109.828 81.526 109.597 81.238 109.291 81.01C108.991 80.776 108.613 80.605 108.157 80.497C107.707 80.383 107.182 80.326 106.582 80.326H100.237L100.345 80.218V86.032ZM105.979 75.754C106.471 75.754 106.915 75.694 107.311 75.574C107.707 75.448 108.046 75.268 108.328 75.034C108.61 74.794 108.826 74.503 108.976 74.161C109.126 73.813 109.201 73.414 109.201 72.964C109.201 72.526 109.129 72.145 108.985 71.821C108.841 71.491 108.628 71.218 108.346 71.002C108.07 70.78 107.731 70.615 107.329 70.507C106.933 70.393 106.48 70.336 105.97 70.336H100.237L100.345 70.228V75.862L100.237 75.754H105.979ZM118.757 81.073C118.757 80.017 118.871 79.024 119.099 78.094C119.327 77.164 119.654 76.312 120.08 75.538C120.506 74.758 121.022 74.065 121.628 73.459C122.234 72.847 122.918 72.331 123.68 71.911C124.442 71.491 125.27 71.17 126.164 70.948C127.058 70.726 128.003 70.615 128.999 70.615C129.995 70.615 130.94 70.726 131.834 70.948C132.728 71.17 133.556 71.491 134.318 71.911C135.08 72.331 135.764 72.847 136.37 73.459C136.976 74.065 137.492 74.758 137.918 75.538C138.344 76.312 138.671 77.164 138.899 78.094C139.127 79.018 139.241 80.011 139.241 81.073C139.241 82.129 139.127 83.125 138.899 84.061C138.671 84.991 138.344 85.843 137.918 86.617C137.492 87.391 136.973 88.084 136.361 88.696C135.755 89.302 135.071 89.818 134.309 90.244C133.553 90.664 132.728 90.985 131.834 91.207C130.946 91.429 130.001 91.54 128.999 91.54C128.003 91.54 127.058 91.429 126.164 91.207C125.27 90.985 124.442 90.664 123.68 90.244C122.924 89.818 122.24 89.302 121.628 88.696C121.022 88.084 120.506 87.391 120.08 86.617C119.654 85.843 119.327 84.991 119.099 84.061C118.871 83.125 118.757 82.129 118.757 81.073ZM125.075 81.073C125.075 81.895 125.162 82.621 125.336 83.251C125.51 83.881 125.765 84.412 126.101 84.844C126.437 85.27 126.848 85.594 127.334 85.816C127.82 86.038 128.375 86.149 128.999 86.149C129.629 86.149 130.187 86.041 130.673 85.825C131.159 85.603 131.567 85.276 131.897 84.844C132.233 84.412 132.488 83.881 132.662 83.251C132.836 82.621 132.923 81.895 132.923 81.073C132.923 80.251 132.836 79.525 132.662 78.895C132.488 78.265 132.233 77.737 131.897 77.311C131.567 76.879 131.159 76.555 130.673 76.339C130.187 76.117 129.629 76.006 128.999 76.006C128.375 76.006 127.82 76.117 127.334 76.339C126.848 76.555 126.437 76.879 126.101 77.311C125.765 77.737 125.51 78.265 125.336 78.895C125.162 79.525 125.075 80.251 125.075 81.073ZM141.169 81.073C141.169 80.017 141.283 79.024 141.511 78.094C141.739 77.164 142.066 76.312 142.492 75.538C142.918 74.758 143.434 74.065 144.04 73.459C144.646 72.847 145.33 72.331 146.092 71.911C146.854 71.491 147.682 71.17 148.576 70.948C149.47 70.726 150.415 70.615 151.411 70.615C152.407 70.615 153.352 70.726 154.246 70.948C155.14 71.17 155.968 71.491 156.73 71.911C157.492 72.331 158.176 72.847 158.782 73.459C159.388 74.065 159.904 74.758 160.33 75.538C160.756 76.312 161.083 77.164 161.311 78.094C161.539 79.018 161.653 80.011 161.653 81.073C161.653 82.129 161.539 83.125 161.311 84.061C161.083 84.991 160.756 85.843 160.33 86.617C159.904 87.391 159.385 88.084 158.773 88.696C158.167 89.302 157.483 89.818 156.721 90.244C155.965 90.664 155.14 90.985 154.246 91.207C153.358 91.429 152.413 91.54 151.411 91.54C150.415 91.54 149.47 91.429 148.576 91.207C147.682 90.985 146.854 90.664 146.092 90.244C145.336 89.818 144.652 89.302 144.04 88.696C143.434 88.084 142.918 87.391 142.492 86.617C142.066 85.843 141.739 84.991 141.511 84.061C141.283 83.125 141.169 82.129 141.169 81.073ZM147.487 81.073C147.487 81.895 147.574 82.621 147.748 83.251C147.922 83.881 148.177 84.412 148.513 84.844C148.849 85.27 149.26 85.594 149.746 85.816C150.232 86.038 150.787 86.149 151.411 86.149C152.041 86.149 152.599 86.041 153.085 85.825C153.571 85.603 153.979 85.276 154.309 84.844C154.645 84.412 154.9 83.881 155.074 83.251C155.248 82.621 155.335 81.895 155.335 81.073C155.335 80.251 155.248 79.525 155.074 78.895C154.9 78.265 154.645 77.737 154.309 77.311C153.979 76.879 153.571 76.555 153.085 76.339C152.599 76.117 152.041 76.006 151.411 76.006C150.787 76.006 150.232 76.117 149.746 76.339C149.26 76.555 148.849 76.879 148.513 77.311C148.177 77.737 147.922 78.265 147.748 78.895C147.574 79.525 147.487 80.251 147.487 81.073ZM183.749 71.155L175.352 81.181V81.01L184.424 91H176.711L170.177 83.575L170.24 83.548V91H163.976V64.36H170.24V79.39L170.177 79.363L176.549 71.155H183.749ZM193.548 70.615C195.06 70.615 196.41 70.777 197.598 71.101C198.786 71.425 199.788 71.893 200.604 72.505C201.426 73.111 202.053 73.855 202.485 74.737C202.917 75.613 203.133 76.603 203.133 77.707H196.932C196.932 77.269 196.863 76.879 196.725 76.537C196.587 76.195 196.383 75.907 196.113 75.673C195.843 75.439 195.507 75.262 195.105 75.142C194.703 75.016 194.238 74.953 193.71 74.953C193.26 74.953 192.846 74.998 192.468 75.088C192.096 75.172 191.775 75.295 191.505 75.457C191.241 75.613 191.034 75.805 190.884 76.033C190.74 76.255 190.668 76.501 190.668 76.771C190.668 77.005 190.713 77.212 190.803 77.392C190.893 77.566 191.019 77.719 191.181 77.851C191.349 77.983 191.547 78.097 191.775 78.193C192.009 78.289 192.267 78.376 192.549 78.454C192.837 78.526 193.146 78.592 193.476 78.652C193.806 78.712 194.151 78.775 194.511 78.841L195.834 79.075C196.356 79.171 196.911 79.279 197.499 79.399C198.093 79.513 198.678 79.666 199.254 79.858C199.836 80.044 200.391 80.281 200.919 80.569C201.453 80.851 201.921 81.202 202.323 81.622C202.731 82.042 203.055 82.543 203.295 83.125C203.541 83.707 203.664 84.388 203.664 85.168C203.664 86.182 203.451 87.085 203.025 87.877C202.605 88.663 201.984 89.329 201.162 89.875C200.346 90.415 199.341 90.826 198.147 91.108C196.953 91.396 195.591 91.54 194.061 91.54C192.441 91.54 191.01 91.381 189.768 91.063C188.526 90.745 187.485 90.28 186.645 89.668C185.811 89.05 185.178 88.291 184.746 87.391C184.314 86.491 184.098 85.459 184.098 84.295H190.299C190.299 84.763 190.374 85.174 190.524 85.528C190.68 85.882 190.911 86.179 191.217 86.419C191.523 86.659 191.907 86.842 192.369 86.968C192.837 87.088 193.383 87.148 194.007 87.148C194.535 87.148 195.012 87.106 195.438 87.022C195.87 86.932 196.236 86.806 196.536 86.644C196.836 86.476 197.067 86.278 197.229 86.05C197.391 85.816 197.472 85.552 197.472 85.258C197.472 85.012 197.43 84.799 197.346 84.619C197.262 84.439 197.139 84.28 196.977 84.142C196.815 84.004 196.617 83.884 196.383 83.782C196.149 83.68 195.879 83.59 195.573 83.512C195.273 83.428 194.94 83.353 194.574 83.287C194.208 83.215 193.812 83.14 193.386 83.062L192.054 82.828C191.574 82.744 191.055 82.645 190.497 82.531C189.939 82.417 189.378 82.27 188.814 82.09C188.25 81.904 187.707 81.673 187.185 81.397C186.663 81.115 186.201 80.77 185.799 80.362C185.403 79.948 185.082 79.459 184.836 78.895C184.596 78.325 184.476 77.656 184.476 76.888C184.476 75.91 184.68 75.034 185.088 74.26C185.502 73.486 186.099 72.829 186.879 72.289C187.659 71.749 188.61 71.335 189.732 71.047C190.854 70.759 192.126 70.615 193.548 70.615Z" fill="white"/>
<path d="M106.542 45.9167H105.333C95.6667 45.9167 90.8334 43.5 90.8334 31.4167V19.3333C90.8334 9.66666 95.6667 4.83333 105.333 4.83333H124.667C134.333 4.83333 139.167 9.66666 139.167 19.3333V31.4167C139.167 41.0833 134.333 45.9167 124.667 45.9167H123.458C122.709 45.9167 121.984 46.2792 121.525 46.8833L117.9 51.7167C116.305 53.8433 113.695 53.8433 112.1 51.7167L108.475 46.8833C108.088 46.3517 107.194 45.9167 106.542 45.9167Z" stroke="white" stroke-width="6" stroke-miterlimit="10" stroke-linecap="round" stroke-linejoin="round"/>
<path d="M102.917 19.3333H127.083" stroke="white" stroke-width="6" stroke-linecap="round" stroke-linejoin="round"/>
<path d="M102.917 31.4167H117.417" stroke="white" stroke-width="6" stroke-linecap="round" stroke-linejoin="round"/>
</svg>
