<svg width="232" height="103" viewBox="0 0 232 103" fill="none" xmlns="http://www.w3.org/2000/svg">
<path d="M49.6719 65.26V70.768H41.6259L42.0579 70.336V91H35.4159V70.336L35.8479 70.768H27.8019V65.26H49.6719ZM49.326 78.607C49.326 77.371 49.551 76.261 50.001 75.277C50.457 74.293 51.105 73.456 51.945 72.766C52.791 72.07 53.817 71.539 55.023 71.173C56.235 70.801 57.597 70.615 59.109 70.615C60.651 70.615 62.025 70.81 63.231 71.2C64.443 71.584 65.466 72.145 66.3 72.883C67.134 73.615 67.77 74.515 68.208 75.583C68.646 76.651 68.865 77.866 68.865 79.228V91H62.601V85.942L62.628 85.933C62.49 86.515 62.301 87.055 62.061 87.553C61.821 88.051 61.533 88.51 61.197 88.93C60.861 89.344 60.48 89.713 60.054 90.037C59.628 90.361 59.163 90.634 58.659 90.856C58.161 91.078 57.627 91.246 57.057 91.36C56.487 91.48 55.887 91.54 55.257 91.54C54.279 91.54 53.388 91.399 52.584 91.117C51.786 90.841 51.102 90.451 50.532 89.947C49.962 89.437 49.521 88.828 49.209 88.12C48.897 87.406 48.741 86.611 48.741 85.735C48.741 84.787 48.93 83.938 49.308 83.188C49.692 82.438 50.247 81.805 50.973 81.289C51.705 80.767 52.596 80.371 53.646 80.101C54.696 79.825 55.893 79.687 57.237 79.687H62.736V83.071H58.083C57.585 83.071 57.144 83.113 56.76 83.197C56.382 83.281 56.064 83.407 55.806 83.575C55.554 83.743 55.362 83.953 55.23 84.205C55.098 84.451 55.032 84.733 55.032 85.051C55.032 85.375 55.095 85.666 55.221 85.924C55.353 86.182 55.545 86.398 55.797 86.572C56.049 86.746 56.355 86.881 56.715 86.977C57.081 87.067 57.498 87.112 57.966 87.112C58.404 87.112 58.821 87.073 59.217 86.995C59.619 86.911 59.991 86.797 60.333 86.653C60.675 86.503 60.987 86.326 61.269 86.122C61.551 85.912 61.788 85.681 61.98 85.429C62.178 85.177 62.331 84.904 62.439 84.61C62.547 84.31 62.601 84.001 62.601 83.683V79.228C62.601 78.616 62.52 78.07 62.358 77.59C62.202 77.104 61.968 76.693 61.656 76.357C61.35 76.021 60.972 75.766 60.522 75.592C60.072 75.418 59.553 75.331 58.965 75.331C58.377 75.331 57.867 75.406 57.435 75.556C57.009 75.706 56.658 75.922 56.382 76.204C56.106 76.486 55.899 76.831 55.761 77.239C55.629 77.641 55.563 78.097 55.563 78.607H49.326ZM77.7806 71.155V77.221L77.7626 77.257C77.9546 76.177 78.2366 75.226 78.6086 74.404C78.9806 73.576 79.4336 72.883 79.9676 72.325C80.5076 71.761 81.1226 71.335 81.8126 71.047C82.5086 70.759 83.2796 70.615 84.1256 70.615C84.8936 70.615 85.6196 70.732 86.3036 70.966C86.9936 71.194 87.6266 71.524 88.2026 71.956C88.7846 72.382 89.3066 72.904 89.7686 73.522C90.2306 74.14 90.6206 74.836 90.9386 75.61C91.2626 76.384 91.5116 77.23 91.6856 78.148C91.8596 79.066 91.9466 80.041 91.9466 81.073C91.9466 82.105 91.8596 83.08 91.6856 83.998C91.5116 84.916 91.2626 85.765 90.9386 86.545C90.6206 87.319 90.2306 88.015 89.7686 88.633C89.3066 89.251 88.7846 89.776 88.2026 90.208C87.6266 90.634 86.9936 90.961 86.3036 91.189C85.6196 91.423 84.8936 91.54 84.1256 91.54C83.2856 91.54 82.5176 91.396 81.8216 91.108C81.1256 90.82 80.5076 90.397 79.9676 89.839C79.4336 89.275 78.9806 88.579 78.6086 87.751C78.2366 86.923 77.9546 85.969 77.7626 84.889L77.7806 84.925V97.813H71.5166V71.155H77.7806ZM77.7806 81.073C77.7806 81.625 77.8196 82.135 77.8976 82.603C77.9756 83.071 78.0896 83.494 78.2396 83.872C78.3896 84.25 78.5756 84.583 78.7976 84.871C79.0256 85.159 79.2836 85.399 79.5716 85.591C79.8656 85.783 80.1926 85.93 80.5526 86.032C80.9126 86.134 81.3056 86.185 81.7316 86.185C82.3736 86.185 82.9376 86.077 83.4236 85.861C83.9096 85.645 84.3146 85.324 84.6386 84.898C84.9686 84.472 85.2146 83.941 85.3766 83.305C85.5446 82.663 85.6286 81.919 85.6286 81.073C85.6286 80.227 85.5446 79.486 85.3766 78.85C85.2146 78.214 84.9716 77.683 84.6476 77.257C84.3236 76.831 83.9156 76.51 83.4236 76.294C82.9376 76.078 82.3736 75.97 81.7316 75.97C81.3056 75.97 80.9126 76.021 80.5526 76.123C80.1926 76.225 79.8656 76.372 79.5716 76.564C79.2836 76.756 79.0256 76.996 78.7976 77.284C78.5756 77.572 78.3896 77.905 78.2396 78.283C78.0896 78.661 77.9756 79.084 77.8976 79.552C77.8196 80.014 77.7806 80.521 77.7806 81.073ZM94.3696 65.26H107.429C108.827 65.26 110.081 65.404 111.191 65.692C112.307 65.98 113.252 66.397 114.026 66.943C114.806 67.489 115.403 68.164 115.817 68.968C116.237 69.766 116.447 70.678 116.447 71.704C116.447 72.61 116.288 73.435 115.97 74.179C115.658 74.917 115.223 75.55 114.665 76.078C114.107 76.6 113.45 77.005 112.694 77.293C111.938 77.575 111.116 77.716 110.228 77.716V77.626C111.266 77.626 112.229 77.782 113.117 78.094C114.011 78.406 114.785 78.847 115.439 79.417C116.093 79.981 116.606 80.659 116.978 81.451C117.35 82.237 117.536 83.107 117.536 84.061C117.536 85.147 117.293 86.119 116.807 86.977C116.327 87.835 115.649 88.561 114.773 89.155C113.903 89.749 112.856 90.205 111.632 90.523C110.408 90.841 109.058 91 107.582 91H94.3696V65.26ZM101.012 86.032L100.904 85.924H107.249C107.849 85.924 108.374 85.87 108.824 85.762C109.28 85.648 109.658 85.477 109.958 85.249C110.264 85.021 110.495 84.73 110.651 84.376C110.807 84.022 110.885 83.605 110.885 83.125C110.885 82.639 110.807 82.222 110.651 81.874C110.495 81.526 110.264 81.238 109.958 81.01C109.658 80.776 109.28 80.605 108.824 80.497C108.374 80.383 107.849 80.326 107.249 80.326H100.904L101.012 80.218V86.032ZM106.646 75.754C107.138 75.754 107.582 75.694 107.978 75.574C108.374 75.448 108.713 75.268 108.995 75.034C109.277 74.794 109.493 74.503 109.643 74.161C109.793 73.813 109.868 73.414 109.868 72.964C109.868 72.526 109.796 72.145 109.652 71.821C109.508 71.491 109.295 71.218 109.013 71.002C108.737 70.78 108.398 70.615 107.996 70.507C107.6 70.393 107.147 70.336 106.637 70.336H100.904L101.012 70.228V75.862L100.904 75.754H106.646ZM119.424 81.073C119.424 80.017 119.538 79.024 119.766 78.094C119.994 77.164 120.321 76.312 120.747 75.538C121.173 74.758 121.689 74.065 122.295 73.459C122.901 72.847 123.585 72.331 124.347 71.911C125.109 71.491 125.937 71.17 126.831 70.948C127.725 70.726 128.67 70.615 129.666 70.615C130.662 70.615 131.607 70.726 132.501 70.948C133.395 71.17 134.223 71.491 134.985 71.911C135.747 72.331 136.431 72.847 137.037 73.459C137.643 74.065 138.159 74.758 138.585 75.538C139.011 76.312 139.338 77.164 139.566 78.094C139.794 79.018 139.908 80.011 139.908 81.073C139.908 82.129 139.794 83.125 139.566 84.061C139.338 84.991 139.011 85.843 138.585 86.617C138.159 87.391 137.64 88.084 137.028 88.696C136.422 89.302 135.738 89.818 134.976 90.244C134.22 90.664 133.395 90.985 132.501 91.207C131.613 91.429 130.668 91.54 129.666 91.54C128.67 91.54 127.725 91.429 126.831 91.207C125.937 90.985 125.109 90.664 124.347 90.244C123.591 89.818 122.907 89.302 122.295 88.696C121.689 88.084 121.173 87.391 120.747 86.617C120.321 85.843 119.994 84.991 119.766 84.061C119.538 83.125 119.424 82.129 119.424 81.073ZM125.742 81.073C125.742 81.895 125.829 82.621 126.003 83.251C126.177 83.881 126.432 84.412 126.768 84.844C127.104 85.27 127.515 85.594 128.001 85.816C128.487 86.038 129.042 86.149 129.666 86.149C130.296 86.149 130.854 86.041 131.34 85.825C131.826 85.603 132.234 85.276 132.564 84.844C132.9 84.412 133.155 83.881 133.329 83.251C133.503 82.621 133.59 81.895 133.59 81.073C133.59 80.251 133.503 79.525 133.329 78.895C133.155 78.265 132.9 77.737 132.564 77.311C132.234 76.879 131.826 76.555 131.34 76.339C130.854 76.117 130.296 76.006 129.666 76.006C129.042 76.006 128.487 76.117 128.001 76.339C127.515 76.555 127.104 76.879 126.768 77.311C126.432 77.737 126.177 78.265 126.003 78.895C125.829 79.525 125.742 80.251 125.742 81.073ZM141.835 81.073C141.835 80.017 141.949 79.024 142.177 78.094C142.405 77.164 142.732 76.312 143.158 75.538C143.584 74.758 144.1 74.065 144.706 73.459C145.312 72.847 145.996 72.331 146.758 71.911C147.52 71.491 148.348 71.17 149.242 70.948C150.136 70.726 151.081 70.615 152.077 70.615C153.073 70.615 154.018 70.726 154.912 70.948C155.806 71.17 156.634 71.491 157.396 71.911C158.158 72.331 158.842 72.847 159.448 73.459C160.054 74.065 160.57 74.758 160.996 75.538C161.422 76.312 161.749 77.164 161.977 78.094C162.205 79.018 162.319 80.011 162.319 81.073C162.319 82.129 162.205 83.125 161.977 84.061C161.749 84.991 161.422 85.843 160.996 86.617C160.57 87.391 160.051 88.084 159.439 88.696C158.833 89.302 158.149 89.818 157.387 90.244C156.631 90.664 155.806 90.985 154.912 91.207C154.024 91.429 153.079 91.54 152.077 91.54C151.081 91.54 150.136 91.429 149.242 91.207C148.348 90.985 147.52 90.664 146.758 90.244C146.002 89.818 145.318 89.302 144.706 88.696C144.1 88.084 143.584 87.391 143.158 86.617C142.732 85.843 142.405 84.991 142.177 84.061C141.949 83.125 141.835 82.129 141.835 81.073ZM148.153 81.073C148.153 81.895 148.24 82.621 148.414 83.251C148.588 83.881 148.843 84.412 149.179 84.844C149.515 85.27 149.926 85.594 150.412 85.816C150.898 86.038 151.453 86.149 152.077 86.149C152.707 86.149 153.265 86.041 153.751 85.825C154.237 85.603 154.645 85.276 154.975 84.844C155.311 84.412 155.566 83.881 155.74 83.251C155.914 82.621 156.001 81.895 156.001 81.073C156.001 80.251 155.914 79.525 155.74 78.895C155.566 78.265 155.311 77.737 154.975 77.311C154.645 76.879 154.237 76.555 153.751 76.339C153.265 76.117 152.707 76.006 152.077 76.006C151.453 76.006 150.898 76.117 150.412 76.339C149.926 76.555 149.515 76.879 149.179 77.311C148.843 77.737 148.588 78.265 148.414 78.895C148.24 79.525 148.153 80.251 148.153 81.073ZM184.416 71.155L176.019 81.181V81.01L185.091 91H177.378L170.844 83.575L170.907 83.548V91H164.643V64.36H170.907V79.39L170.844 79.363L177.216 71.155H184.416ZM194.214 70.615C195.726 70.615 197.076 70.777 198.264 71.101C199.452 71.425 200.454 71.893 201.27 72.505C202.092 73.111 202.719 73.855 203.151 74.737C203.583 75.613 203.799 76.603 203.799 77.707H197.598C197.598 77.269 197.529 76.879 197.391 76.537C197.253 76.195 197.049 75.907 196.779 75.673C196.509 75.439 196.173 75.262 195.771 75.142C195.369 75.016 194.904 74.953 194.376 74.953C193.926 74.953 193.512 74.998 193.134 75.088C192.762 75.172 192.441 75.295 192.171 75.457C191.907 75.613 191.7 75.805 191.55 76.033C191.406 76.255 191.334 76.501 191.334 76.771C191.334 77.005 191.379 77.212 191.469 77.392C191.559 77.566 191.685 77.719 191.847 77.851C192.015 77.983 192.213 78.097 192.441 78.193C192.675 78.289 192.933 78.376 193.215 78.454C193.503 78.526 193.812 78.592 194.142 78.652C194.472 78.712 194.817 78.775 195.177 78.841L196.5 79.075C197.022 79.171 197.577 79.279 198.165 79.399C198.759 79.513 199.344 79.666 199.92 79.858C200.502 80.044 201.057 80.281 201.585 80.569C202.119 80.851 202.587 81.202 202.989 81.622C203.397 82.042 203.721 82.543 203.961 83.125C204.207 83.707 204.33 84.388 204.33 85.168C204.33 86.182 204.117 87.085 203.691 87.877C203.271 88.663 202.65 89.329 201.828 89.875C201.012 90.415 200.007 90.826 198.813 91.108C197.619 91.396 196.257 91.54 194.727 91.54C193.107 91.54 191.676 91.381 190.434 91.063C189.192 90.745 188.151 90.28 187.311 89.668C186.477 89.05 185.844 88.291 185.412 87.391C184.98 86.491 184.764 85.459 184.764 84.295H190.965C190.965 84.763 191.04 85.174 191.19 85.528C191.346 85.882 191.577 86.179 191.883 86.419C192.189 86.659 192.573 86.842 193.035 86.968C193.503 87.088 194.049 87.148 194.673 87.148C195.201 87.148 195.678 87.106 196.104 87.022C196.536 86.932 196.902 86.806 197.202 86.644C197.502 86.476 197.733 86.278 197.895 86.05C198.057 85.816 198.138 85.552 198.138 85.258C198.138 85.012 198.096 84.799 198.012 84.619C197.928 84.439 197.805 84.28 197.643 84.142C197.481 84.004 197.283 83.884 197.049 83.782C196.815 83.68 196.545 83.59 196.239 83.512C195.939 83.428 195.606 83.353 195.24 83.287C194.874 83.215 194.478 83.14 194.052 83.062L192.72 82.828C192.24 82.744 191.721 82.645 191.163 82.531C190.605 82.417 190.044 82.27 189.48 82.09C188.916 81.904 188.373 81.673 187.851 81.397C187.329 81.115 186.867 80.77 186.465 80.362C186.069 79.948 185.748 79.459 185.502 78.895C185.262 78.325 185.142 77.656 185.142 76.888C185.142 75.91 185.346 75.034 185.754 74.26C186.168 73.486 186.765 72.829 187.545 72.289C188.325 71.749 189.276 71.335 190.398 71.047C191.52 70.759 192.792 70.615 194.214 70.615Z" fill="#191B23"/>
<path d="M107.208 45.9167H106C96.3333 45.9167 91.5 43.5 91.5 31.4167V19.3333C91.5 9.66667 96.3333 4.83334 106 4.83334H125.333C135 4.83334 139.833 9.66667 139.833 19.3333V31.4167C139.833 41.0833 135 45.9167 125.333 45.9167H124.125C123.376 45.9167 122.651 46.2792 122.192 46.8833L118.567 51.7167C116.972 53.8433 114.362 53.8433 112.767 51.7167L109.142 46.8833C108.755 46.3517 107.861 45.9167 107.208 45.9167Z" stroke="#191B23" stroke-width="6" stroke-miterlimit="10" stroke-linecap="round" stroke-linejoin="round"/>
<path d="M103.583 19.3333H127.75" stroke="#191B23" stroke-width="6" stroke-linecap="round" stroke-linejoin="round"/>
<path d="M103.583 31.4167H118.083" stroke="#191B23" stroke-width="6" stroke-linecap="round" stroke-linejoin="round"/>
</svg>
